<svg xmlns="http://www.w3.org/2000/svg" viewBox="0 0 480 640">
  <defs>
    <linearGradient id="bg" x1="0" y1="0" x2="0.9" y2="1">
      <stop offset="0" stop-color="#f5f0de"/>
      <stop offset="0.5" stop-color="#dce5c7"/>
      <stop offset="1" stop-color="#a6b884"/>
    </linearGradient>
    <radialGradient id="sun" cx="0.78" cy="0.2" r="0.25">
      <stop offset="0" stop-color="#fff8d9" stop-opacity="0.95"/>
      <stop offset="1" stop-color="#fff8d9" stop-opacity="0"/>
    </radialGradient>
    <filter id="blur" x="-20%" y="-20%" width="140%" height="140%">
      <feGaussianBlur stdDeviation="12"/>
    </filter>
  </defs>
  <rect width="480" height="640" fill="url(#bg)"/>
  <rect x="26" y="26" width="428" height="588" rx="24" fill="none" stroke="#6f8155" stroke-opacity="0.28"/>
  <circle cx="372" cy="132" r="96" fill="url(#sun)"/>
  <path d="M84 102c74 18 123 29 182 24 55-5 104-28 140-22" fill="none" stroke="#ffffff" stroke-opacity="0.38" stroke-width="28" stroke-linecap="round" filter="url(#blur)"/>
  <path d="M22 468c78-70 134-96 197-96 79 0 145 34 239 130v138H22z" fill="#8ca06f" fill-opacity="0.22"/>
  <path d="M58 524c64-94 118-142 168-152 40-8 94 9 172 92" fill="none" stroke="#50653d" stroke-opacity="0.22" stroke-width="52" stroke-linecap="round"/>
  <path d="M122 154c-9 62-15 145-12 240" fill="none" stroke="#4a5e35" stroke-width="6" stroke-linecap="round"/>
  <path d="M124 178c20 38 37 70 55 104" fill="none" stroke="#6c8852" stroke-opacity="0.82" stroke-width="4" stroke-linecap="round"/>
  <path d="M116 198c-18 34-29 58-36 88" fill="none" stroke="#71915b" stroke-opacity="0.65" stroke-width="3.5" stroke-linecap="round"/>
  <path d="M122 222c24 35 46 69 70 112" fill="none" stroke="#77955a" stroke-opacity="0.75" stroke-width="3.6" stroke-linecap="round"/>
  <path d="M112 248c-22 32-38 63-52 105" fill="none" stroke="#6e8b56" stroke-opacity="0.72" stroke-width="3.2" stroke-linecap="round"/>
  <path d="M130 256c30 34 55 67 83 109" fill="none" stroke="#7d9d61" stroke-opacity="0.7" stroke-width="3.2" stroke-linecap="round"/>
  <path d="M268 360c26-42 53-62 82-60 24 2 46 17 66 46-45 39-95 60-151 70-10-17-8-38 3-56z" fill="#efe3bb" fill-opacity="0.62"/>
  <path d="M267 360c16 11 28 21 52 29 31 10 60 7 90-2" fill="none" stroke="#b7904b" stroke-opacity="0.5" stroke-width="5" stroke-linecap="round"/>
  <path d="M318 220c20 9 35 9 47 0" fill="none" stroke="#4c5f36" stroke-width="4" stroke-linecap="round"/>
  <path d="M314 220c-10 -4 -19 -3 -28 1 7 2 14 6 20 12" fill="#34422a"/>
  <path d="M366 220c10 -4 19 -3 28 1 -7 2 -14 6 -20 12" fill="#34422a"/>
  <text x="62" y="484" fill="#4b5b35" font-size="42" font-family="STKaiti, KaiTi, serif">立春锦裳</text>
  <text x="62" y="526" fill="#6d5d41" font-size="18" letter-spacing="4" font-family="Microsoft YaHei, sans-serif">柳芽初舒  晨光拂锦</text>
</svg>
