<svg xmlns="http://www.w3.org/2000/svg" viewBox="0 0 480 640">
  <defs>
    <linearGradient id="bg" x1="0" y1="0" x2="1" y2="1">
      <stop offset="0" stop-color="#f6edd9"/>
      <stop offset="0.5" stop-color="#dfc791"/>
      <stop offset="1" stop-color="#9d7d47"/>
    </linearGradient>
  </defs>
  <rect width="480" height="640" fill="url(#bg)"/>
  <rect x="24" y="24" width="432" height="592" rx="24" fill="none" stroke="#836537" stroke-opacity="0.24"/>
  <path d="M34 490c104-72 175-97 236-89 75 10 131 48 176 112v103H34z" fill="#7b5e34" fill-opacity="0.16"/>
  <path d="M88 210c28 80 45 167 46 260" fill="none" stroke="#81653b" stroke-width="4" stroke-linecap="round"/>
  <path d="M130 198c22 92 35 180 39 268" fill="none" stroke="#735730" stroke-width="3.7" stroke-linecap="round"/>
  <path d="M176 190c18 98 27 188 26 273" fill="none" stroke="#6a512b" stroke-width="3.5" stroke-linecap="round"/>
  <path d="M116 220c21 8 39 20 54 37" fill="none" stroke="#d6b36a" stroke-width="3.2" stroke-linecap="round"/>
  <path d="M102 252c22 8 43 24 64 45" fill="none" stroke="#d7b86f" stroke-width="3.2" stroke-linecap="round"/>
  <path d="M146 228c24 10 44 25 59 44" fill="none" stroke="#e0c37d" stroke-width="3" stroke-linecap="round"/>
  <path d="M158 264c19 7 40 21 61 44" fill="none" stroke="#e1c980" stroke-width="3" stroke-linecap="round"/>
  <path d="M200 222c16 9 31 21 45 37" fill="none" stroke="#d6ba72" stroke-width="2.8" stroke-linecap="round"/>
  <path d="M216 260c20 9 38 24 55 45" fill="none" stroke="#e4cb8d" stroke-width="2.8" stroke-linecap="round"/>
  <path d="M266 286c24-33 52-48 84-46 27 2 51 16 76 43-26 42-56 73-92 99-49-14-72-43-68-96z" fill="#f4e5b3" fill-opacity="0.7"/>
  <path d="M266 286c44 21 89 29 136 18" fill="none" stroke="#9a7430" stroke-opacity="0.42" stroke-width="4" stroke-linecap="round"/>
  <text x="58" y="492" fill="#5e4520" font-size="42" font-family="STKaiti, KaiTi, serif">芒种盈穗</text>
  <text x="58" y="534" fill="#6d5938" font-size="18" letter-spacing="4" font-family="Microsoft YaHei, sans-serif">麦芒渐熟  稻浪将成</text>
</svg>
