<svg xmlns="http://www.w3.org/2000/svg" viewBox="0 0 480 640">
  <defs>
    <linearGradient id="bg" x1="0" y1="0" x2="1" y2="1">
      <stop offset="0" stop-color="#edf1ec"/>
      <stop offset="0.48" stop-color="#ccd8d2"/>
      <stop offset="1" stop-color="#859992"/>
    </linearGradient>
    <filter id="mist" x="-20%" y="-20%" width="140%" height="140%">
      <feGaussianBlur stdDeviation="16"/>
    </filter>
  </defs>
  <rect width="480" height="640" fill="url(#bg)"/>
  <rect x="24" y="24" width="432" height="592" rx="24" fill="none" stroke="#70877f" stroke-opacity="0.25"/>
  <path d="M70 122c95 31 183 33 302 10" fill="none" stroke="#ffffff" stroke-opacity="0.42" stroke-width="36" stroke-linecap="round" filter="url(#mist)"/>
  <path d="M24 448c102-100 169-127 235-118 69 9 123 52 197 138v148H24z" fill="#61746d" fill-opacity="0.13"/>
  <path d="M82 210c-2 92 4 174 20 247" fill="none" stroke="#50665b" stroke-width="6" stroke-linecap="round"/>
  <path d="M84 246c18 32 37 62 60 92" fill="none" stroke="#6d8a79" stroke-opacity="0.72" stroke-width="3.6" stroke-linecap="round"/>
  <path d="M78 274c-16 24-29 51-40 82" fill="none" stroke="#799485" stroke-opacity="0.56" stroke-width="3.1" stroke-linecap="round"/>
  <path d="M92 302c24 28 48 58 74 95" fill="none" stroke="#7c9a86" stroke-opacity="0.7" stroke-width="3.2" stroke-linecap="round"/>
  <path d="M240 302c26-54 58-84 92-88 21-2 42 5 66 24-5 47-17 88-42 124-54 2-94-17-116-60z" fill="#f0eee4" fill-opacity="0.74"/>
  <path d="M254 354c30-5 57-16 85-34" fill="none" stroke="#6b7c6f" stroke-opacity="0.45" stroke-width="4" stroke-linecap="round"/>
  <path d="M342 286c11 43 22 87 34 132" fill="none" stroke="#5e6e64" stroke-width="3" stroke-linecap="round" stroke-dasharray="2 10"/>
  <path d="M362 278c13 47 26 94 40 141" fill="none" stroke="#5d6f64" stroke-width="3" stroke-linecap="round" stroke-dasharray="2 12"/>
  <path d="M214 460c42-26 85-44 129-54" fill="none" stroke="#5f7469" stroke-opacity="0.22" stroke-width="48" stroke-linecap="round"/>
  <text x="58" y="492" fill="#4d6459" font-size="42" font-family="STKaiti, KaiTi, serif">清明烟岚</text>
  <text x="58" y="534" fill="#5f6762" font-size="18" letter-spacing="4" font-family="Microsoft YaHei, sans-serif">细雨如烟  柳影轻寒</text>
</svg>
