<svg xmlns="http://www.w3.org/2000/svg" viewBox="0 0 480 640">
  <defs>
    <linearGradient id="bg" x1="0" y1="0" x2="1" y2="1">
      <stop offset="0" stop-color="#f3f4f6"/>
      <stop offset="0.48" stop-color="#d7dde5"/>
      <stop offset="1" stop-color="#8c97aa"/>
    </linearGradient>
  </defs>
  <rect width="480" height="640" fill="url(#bg)"/>
  <rect x="24" y="24" width="432" height="592" rx="24" fill="none" stroke="#6f7886" stroke-opacity="0.24"/>
  <path d="M42 494c88-74 156-102 223-94 82 11 135 51 181 124v106H42z" fill="#667184" fill-opacity="0.14"/>
  <path d="M70 170c70 31 142 39 245 25" fill="none" stroke="#ffffff" stroke-opacity="0.46" stroke-width="30" stroke-linecap="round"/>
  <path d="M88 392c65-34 129-49 192-43" fill="none" stroke="#adb6c5" stroke-opacity="0.46" stroke-width="28" stroke-linecap="round"/>
  <path d="M120 152c89 45 152 103 197 172" fill="none" stroke="#5a4842" stroke-width="9" stroke-linecap="round"/>
  <path d="M194 210c-12 42-33 79-62 111" fill="none" stroke="#5a4842" stroke-width="5.4" stroke-linecap="round"/>
  <path d="M246 248c-11 31-29 61-57 88" fill="none" stroke="#5a4842" stroke-width="4.6" stroke-linecap="round"/>
  <path d="M278 286c-4 27-17 53-36 75" fill="none" stroke="#5a4842" stroke-width="4.1" stroke-linecap="round"/>
  <circle cx="166" cy="250" r="12" fill="#e5b7be"/>
  <circle cx="165" cy="250" r="4" fill="#9e5c64"/>
  <circle cx="204" cy="212" r="11" fill="#f0c3ca"/>
  <circle cx="204" cy="212" r="4" fill="#9e5c64"/>
  <circle cx="228" cy="286" r="12" fill="#e8b6bf"/>
  <circle cx="228" cy="286" r="4" fill="#9e5c64"/>
  <circle cx="280" cy="250" r="11" fill="#f2c7cf"/>
  <circle cx="280" cy="250" r="4" fill="#9e5c64"/>
  <circle cx="306" cy="316" r="10" fill="#f0c4cb"/>
  <circle cx="306" cy="316" r="4" fill="#9e5c64"/>
  <path d="M270 308c27-40 58-61 90-61 25 0 48 12 69 38-17 44-42 80-75 108-50-1-78-28-84-85z" fill="#eef0f5" fill-opacity="0.74"/>
  <path d="M278 320c36 15 73 19 113 12" fill="none" stroke="#8e95a2" stroke-opacity="0.36" stroke-width="4" stroke-linecap="round"/>
  <text x="58" y="492" fill="#4d5562" font-size="42" font-family="STKaiti, KaiTi, serif">冬梅映雪</text>
  <text x="58" y="534" fill="#666c76" font-size="18" letter-spacing="4" font-family="Microsoft YaHei, sans-serif">疏枝着雪  冷香自明</text>
</svg>
